# xmcd
#
# Track frame offsets:
#	150
#	8737
#	29207
#	43755
#	57655
#	75780
#	95965
#	102925
#	117810
#	134567
#	155857
#	175720
#	190517
#	210787
#	231872
#	249847
#
# Disc length: 3473 seconds
#
# Revision: 1
# Processed by: cddbd v1.5.1PL0 Copyright (c) Steve Scherf et al.
# Submitted via: CDex 1.50Beta5
#
DISCID=d00d8f10
DTITLE=細野晴臣 - VERY BEST OF YEN LABEL Vol.1,THE Disc 1
DYEAR=1997
DGENRE=Rock
TTITLE0=細野晴臣/ピクニック
TTITLE1=細野晴臣/フニクリ・フニクラ
TTITLE2=立花ハジメ/H
TTITLE3=立花ハジメ/ギター・ジェニウス
TTITLE4=高橋幸宏/きっとうまくいく
TTITLE5=高橋幸宏/使いすてハート
TTITLE6=ゲルニカ/工場見学
TTITLE7=ゲルニカ/復興の唄
TTITLE8=坂本龍一/ビッグラゲーション
TTITLE9=サンディー&サンセット/ドリーム・オブ・イミグラツ
TTITLE10=サンディー&サンセット/ミラー・オブ・アイズ
TTITLE11=テストパターン/ピーチ・ガール
TTITLE12=インテリア/ジャイアント・ステップ
TTITLE13=シーナ/ワイワイワイ
TTITLE14=シーナ/シャネルの5番のオン・ザ・ロック
TTITLE15=細野晴臣/ビックリパーティのテーマ
EXTD=
EXTT0=
EXTT1=
EXTT2=
EXTT3=
EXTT4=
EXTT5=
EXTT6=
EXTT7=
EXTT8=
EXTT9=
EXTT10=
EXTT11=
EXTT12=
EXTT13=
EXTT14=
EXTT15=
PLAYORDER=
